<?xml version="1.0" encoding="iso-8859-1"?>
<!-- Generator: Adobe Illustrator 21.0.0, SVG Export Plug-In . SVG Version: 6.00 Build 0)  -->
<svg xmlns="http://www.w3.org/2000/svg" xmlns:xlink="http://www.w3.org/1999/xlink" version="1.1" id="Capa_1" x="0px" y="0px" viewBox="0 0 511.992 511.992" style="enable-background:new 0 0 511.992 511.992;" xml:space="preserve" width="512" height="512">
<path style="fill-rule:evenodd;clip-rule:evenodd;" d="M118.992,136.996c32.716,0,62.45,13.363,84.007,34.896l17.936-17.936  c5.857-5.857,15.354-5.857,21.211,0c5.857,5.857,5.857,15.354,0,21.211l-20.611,20.611c27.672,46.844,19.791,105.995-18.487,144.274  c-46.582,46.582-121.529,46.581-168.111,0c-46.582-46.582-46.582-121.53,0-168.112C56.498,150.379,86.251,136.996,118.992,136.996  L118.992,136.996z M392.992,136.996c65.481,0,119,53.519,119,119c0,65.481-53.519,119.001-119,119.001s-119-53.519-119-119  C273.992,190.515,327.511,136.996,392.992,136.996L392.992,136.996z M392.992,166.996c-48.92,0-89,40.08-89,89  c0,48.92,40.08,89,89,89c48.92,0,89-40.08,89-89C481.992,207.077,441.912,166.996,392.992,166.996L392.992,166.996z   M419.373,208.404l-26.381,26.381l-26.381-26.381c-5.857-5.857-15.354-5.857-21.211,0c-5.857,5.857-5.857,15.354,0,21.211  l26.381,26.381L345.4,282.377c-5.857,5.857-5.857,15.354,0,21.211c5.857,5.857,15.354,5.857,21.211,0l26.381-26.381l26.381,26.381  c5.857,5.857,15.354,5.857,21.211,0c5.857-5.857,5.857-15.354,0-21.211l-26.381-26.381l26.381-26.381  c5.857-5.857,5.857-15.354,0-21.211C434.727,202.547,425.23,202.547,419.373,208.404L419.373,208.404z M74.496,258.117  c-5.857-5.857-5.857-15.354,0-21.211c5.857-5.857,15.354-5.857,21.211,0l21.138,21.139l64.942-64.942  c-34.872-34.819-90.795-34.797-125.641,0.048c-34.864,34.864-34.864,90.825,0,125.689c34.865,34.865,90.825,34.864,125.689,0  c26.511-26.511,33.848-66.756,17.541-100.905l-71.926,71.926c-5.857,5.857-15.354,5.857-21.211,0L74.496,258.117z"/>















</svg>
