<?xml version="1.0" encoding="utf-8"?>
<svg xmlns="http://www.w3.org/2000/svg" xmlns:xlink="http://www.w3.org/1999/xlink" style="margin: auto; background: none; display: block; shape-rendering: auto;" width="200px" height="200px" viewBox="0 0 100 100" preserveAspectRatio="xMidYMid">
<g transform="rotate(0 50 50)">
  <rect x="49.5" y="26.5" rx="0.5" ry="6.5" width="1" height="13" fill="#1d0e0b">
    <animate attributeName="opacity" values="1;0" keyTimes="0;1" dur="1s" begin="-0.96s" repeatCount="indefinite"></animate>
  </rect>
</g><g transform="rotate(14.4 50 50)">
  <rect x="49.5" y="26.5" rx="0.5" ry="6.5" width="1" height="13" fill="#1d0e0b">
    <animate attributeName="opacity" values="1;0" keyTimes="0;1" dur="1s" begin="-0.92s" repeatCount="indefinite"></animate>
  </rect>
</g><g transform="rotate(28.8 50 50)">
  <rect x="49.5" y="26.5" rx="0.5" ry="6.5" width="1" height="13" fill="#1d0e0b">
    <animate attributeName="opacity" values="1;0" keyTimes="0;1" dur="1s" begin="-0.88s" repeatCount="indefinite"></animate>
  </rect>
</g><g transform="rotate(43.2 50 50)">
  <rect x="49.5" y="26.5" rx="0.5" ry="6.5" width="1" height="13" fill="#1d0e0b">
    <animate attributeName="opacity" values="1;0" keyTimes="0;1" dur="1s" begin="-0.84s" repeatCount="indefinite"></animate>
  </rect>
</g><g transform="rotate(57.6 50 50)">
  <rect x="49.5" y="26.5" rx="0.5" ry="6.5" width="1" height="13" fill="#1d0e0b">
    <animate attributeName="opacity" values="1;0" keyTimes="0;1" dur="1s" begin="-0.8s" repeatCount="indefinite"></animate>
  </rect>
</g><g transform="rotate(72 50 50)">
  <rect x="49.5" y="26.5" rx="0.5" ry="6.5" width="1" height="13" fill="#1d0e0b">
    <animate attributeName="opacity" values="1;0" keyTimes="0;1" dur="1s" begin="-0.76s" repeatCount="indefinite"></animate>
  </rect>
</g><g transform="rotate(86.4 50 50)">
  <rect x="49.5" y="26.5" rx="0.5" ry="6.5" width="1" height="13" fill="#1d0e0b">
    <animate attributeName="opacity" values="1;0" keyTimes="0;1" dur="1s" begin="-0.72s" repeatCount="indefinite"></animate>
  </rect>
</g><g transform="rotate(100.8 50 50)">
  <rect x="49.5" y="26.5" rx="0.5" ry="6.5" width="1" height="13" fill="#1d0e0b">
    <animate attributeName="opacity" values="1;0" keyTimes="0;1" dur="1s" begin="-0.68s" repeatCount="indefinite"></animate>
  </rect>
</g><g transform="rotate(115.2 50 50)">
  <rect x="49.5" y="26.5" rx="0.5" ry="6.5" width="1" height="13" fill="#1d0e0b">
    <animate attributeName="opacity" values="1;0" keyTimes="0;1" dur="1s" begin="-0.64s" repeatCount="indefinite"></animate>
  </rect>
</g><g transform="rotate(129.6 50 50)">
  <rect x="49.5" y="26.5" rx="0.5" ry="6.5" width="1" height="13" fill="#1d0e0b">
    <animate attributeName="opacity" values="1;0" keyTimes="0;1" dur="1s" begin="-0.6s" repeatCount="indefinite"></animate>
  </rect>
</g><g transform="rotate(144 50 50)">
  <rect x="49.5" y="26.5" rx="0.5" ry="6.5" width="1" height="13" fill="#1d0e0b">
    <animate attributeName="opacity" values="1;0" keyTimes="0;1" dur="1s" begin="-0.56s" repeatCount="indefinite"></animate>
  </rect>
</g><g transform="rotate(158.4 50 50)">
  <rect x="49.5" y="26.5" rx="0.5" ry="6.5" width="1" height="13" fill="#1d0e0b">
    <animate attributeName="opacity" values="1;0" keyTimes="0;1" dur="1s" begin="-0.52s" repeatCount="indefinite"></animate>
  </rect>
</g><g transform="rotate(172.8 50 50)">
  <rect x="49.5" y="26.5" rx="0.5" ry="6.5" width="1" height="13" fill="#1d0e0b">
    <animate attributeName="opacity" values="1;0" keyTimes="0;1" dur="1s" begin="-0.48s" repeatCount="indefinite"></animate>
  </rect>
</g><g transform="rotate(187.2 50 50)">
  <rect x="49.5" y="26.5" rx="0.5" ry="6.5" width="1" height="13" fill="#1d0e0b">
    <animate attributeName="opacity" values="1;0" keyTimes="0;1" dur="1s" begin="-0.44s" repeatCount="indefinite"></animate>
  </rect>
</g><g transform="rotate(201.6 50 50)">
  <rect x="49.5" y="26.5" rx="0.5" ry="6.5" width="1" height="13" fill="#1d0e0b">
    <animate attributeName="opacity" values="1;0" keyTimes="0;1" dur="1s" begin="-0.4s" repeatCount="indefinite"></animate>
  </rect>
</g><g transform="rotate(216 50 50)">
  <rect x="49.5" y="26.5" rx="0.5" ry="6.5" width="1" height="13" fill="#1d0e0b">
    <animate attributeName="opacity" values="1;0" keyTimes="0;1" dur="1s" begin="-0.36s" repeatCount="indefinite"></animate>
  </rect>
</g><g transform="rotate(230.4 50 50)">
  <rect x="49.5" y="26.5" rx="0.5" ry="6.5" width="1" height="13" fill="#1d0e0b">
    <animate attributeName="opacity" values="1;0" keyTimes="0;1" dur="1s" begin="-0.32s" repeatCount="indefinite"></animate>
  </rect>
</g><g transform="rotate(244.8 50 50)">
  <rect x="49.5" y="26.5" rx="0.5" ry="6.5" width="1" height="13" fill="#1d0e0b">
    <animate attributeName="opacity" values="1;0" keyTimes="0;1" dur="1s" begin="-0.28s" repeatCount="indefinite"></animate>
  </rect>
</g><g transform="rotate(259.2 50 50)">
  <rect x="49.5" y="26.5" rx="0.5" ry="6.5" width="1" height="13" fill="#1d0e0b">
    <animate attributeName="opacity" values="1;0" keyTimes="0;1" dur="1s" begin="-0.24s" repeatCount="indefinite"></animate>
  </rect>
</g><g transform="rotate(273.6 50 50)">
  <rect x="49.5" y="26.5" rx="0.5" ry="6.5" width="1" height="13" fill="#1d0e0b">
    <animate attributeName="opacity" values="1;0" keyTimes="0;1" dur="1s" begin="-0.2s" repeatCount="indefinite"></animate>
  </rect>
</g><g transform="rotate(288 50 50)">
  <rect x="49.5" y="26.5" rx="0.5" ry="6.5" width="1" height="13" fill="#1d0e0b">
    <animate attributeName="opacity" values="1;0" keyTimes="0;1" dur="1s" begin="-0.16s" repeatCount="indefinite"></animate>
  </rect>
</g><g transform="rotate(302.4 50 50)">
  <rect x="49.5" y="26.5" rx="0.5" ry="6.5" width="1" height="13" fill="#1d0e0b">
    <animate attributeName="opacity" values="1;0" keyTimes="0;1" dur="1s" begin="-0.12s" repeatCount="indefinite"></animate>
  </rect>
</g><g transform="rotate(316.8 50 50)">
  <rect x="49.5" y="26.5" rx="0.5" ry="6.5" width="1" height="13" fill="#1d0e0b">
    <animate attributeName="opacity" values="1;0" keyTimes="0;1" dur="1s" begin="-0.08s" repeatCount="indefinite"></animate>
  </rect>
</g><g transform="rotate(331.2 50 50)">
  <rect x="49.5" y="26.5" rx="0.5" ry="6.5" width="1" height="13" fill="#1d0e0b">
    <animate attributeName="opacity" values="1;0" keyTimes="0;1" dur="1s" begin="-0.04s" repeatCount="indefinite"></animate>
  </rect>
</g><g transform="rotate(345.6 50 50)">
  <rect x="49.5" y="26.5" rx="0.5" ry="6.5" width="1" height="13" fill="#1d0e0b">
    <animate attributeName="opacity" values="1;0" keyTimes="0;1" dur="1s" begin="0s" repeatCount="indefinite"></animate>
  </rect>
</g>
<!-- [ldio] generated by https://loading.io/ --></svg>